<svg width="399" height="125" viewBox="0 0 399 125" fill="none" xmlns="http://www.w3.org/2000/svg">
<path d="M297.057 0H292.656V24.6473H297.057V0Z" fill="#529ED6"/>
<path d="M273.657 5.09604L269.845 7.29669L282.169 28.6413L285.98 26.4406L273.657 5.09604Z" fill="#529ED6"/>
<path d="M255.935 21.1996L253.735 25.0111L275.079 37.3348L277.28 33.5232L255.935 21.1996Z" fill="#529ED6"/>
<path d="M273.29 44.0131H248.643V48.4144H273.29V44.0131Z" fill="#529ED6"/>
<path d="M275.078 55.0879L253.736 67.4165L255.938 71.2276L277.28 58.899L275.078 55.0879Z" fill="#529ED6"/>
<path d="M282.166 63.7924L269.848 85.1394L273.66 87.3392L285.978 65.9921L282.166 63.7924Z" fill="#529ED6"/>
<path d="M297.057 67.7801H292.656V92.4274H297.057V67.7801Z" fill="#529ED6"/>
<path d="M307.544 63.8003L303.733 66.0019L316.061 87.344L319.872 85.1424L307.544 63.8003Z" fill="#529ED6"/>
<path d="M314.636 55.0864L312.436 58.8984L333.783 71.2196L335.983 67.4076L314.636 55.0864Z" fill="#529ED6"/>
<path d="M341.07 44.0131H316.423V48.4144H341.07V44.0131Z" fill="#529ED6"/>
<path d="M333.786 21.1998L312.442 33.5259L314.643 37.3375L335.988 25.0114L333.786 21.1998Z" fill="#529ED6"/>
<path d="M316.059 5.09199L303.738 26.439L307.55 28.6392L319.871 7.29221L316.059 5.09199Z" fill="#529ED6"/>
<path d="M16.0279 63.3575H9.73781V77.3919H1.84229V39.0538H16.0805C20.6073 39.0538 24.0989 40.0632 26.5553 42.0819C29.0116 44.1006 30.2398 46.9532 30.2398 50.6395C30.2398 53.2551 29.6696 55.4406 28.5291 57.196C27.4062 58.9338 25.6955 60.3206 23.3971 61.3563L31.6873 77.0233V77.3919H23.2128L16.0279 63.3575ZM9.73781 56.959H16.1069C18.0895 56.959 19.6247 56.4587 20.7126 55.4581C21.8004 54.44 22.3443 53.0444 22.3443 51.2715C22.3443 49.4634 21.8267 48.0415 20.7915 47.0058C19.7739 45.9701 18.2036 45.4523 16.0805 45.4523H9.73781V56.959Z" fill="black"/>
<path d="M48.8733 77.9186C44.6974 77.9186 41.2936 76.6371 38.6617 74.0742C36.0474 71.5113 34.7403 68.0971 34.7403 63.8314V63.0941C34.7403 60.2328 35.293 57.6787 36.3983 55.4318C37.5037 53.1673 39.0653 51.4295 41.083 50.2182C43.1183 48.9894 45.4343 48.375 48.0311 48.375C51.9262 48.375 54.9879 49.6038 57.2162 52.0614C59.462 54.519 60.5849 58.0035 60.5849 62.5149V65.6219H42.4516C42.6972 67.4827 43.4341 68.9748 44.6623 70.0982C45.9081 71.2217 47.4784 71.7834 49.3733 71.7834C52.3034 71.7834 54.5931 70.7214 56.2424 68.5973L59.9796 72.784C58.8392 74.399 57.2951 75.6629 55.3476 76.5757C53.4 77.4709 51.2419 77.9186 48.8733 77.9186ZM48.0047 54.5365C46.4958 54.5365 45.2676 55.0456 44.3202 56.0637C43.3903 57.0819 42.7937 58.5389 42.5305 60.4347H53.1105V59.8291C53.0754 58.1439 52.6192 56.8449 51.742 55.9321C50.8647 55.0017 49.6189 54.5365 48.0047 54.5365Z" fill="black"/>
<path d="M71.9282 48.9017L72.165 52.1931C74.2003 49.6477 76.9287 48.375 80.3501 48.375C83.3679 48.375 85.6137 49.2615 87.0876 51.0345C88.5614 52.8075 89.3159 55.4581 89.3509 58.9865V77.3919H81.7449V59.1708C81.7449 57.5558 81.394 56.3885 80.6922 55.6688C79.9904 54.9315 78.8236 54.5629 77.1918 54.5629C75.0513 54.5629 73.4459 55.4757 72.3756 57.3013V77.3919H64.7696V48.9017H71.9282Z" fill="black"/>
<path d="M104.247 41.8976V48.9017H109.116V54.4839H104.247V68.7027C104.247 69.7559 104.449 70.5107 104.852 70.9671C105.256 71.4236 106.028 71.6518 107.168 71.6518C108.011 71.6518 108.756 71.5903 109.406 71.4674V77.234C107.914 77.6904 106.379 77.9186 104.8 77.9186C99.466 77.9186 96.7464 75.224 96.6411 69.8349V54.4839H92.4828V48.9017H96.6411V41.8976H104.247Z" fill="black"/>
<path d="M129.855 77.3919C129.504 76.7073 129.25 75.856 129.092 74.8378C127.249 76.8916 124.854 77.9186 121.907 77.9186C119.117 77.9186 116.801 77.1111 114.959 75.4961C113.134 73.8811 112.222 71.8449 112.222 69.3873C112.222 66.368 113.336 64.0508 115.564 62.4359C117.81 60.8209 121.047 60.0046 125.276 59.9871H128.776V58.3545C128.776 57.038 128.434 55.9847 127.749 55.1948C127.083 54.4049 126.021 54.0099 124.565 54.0099C123.284 54.0099 122.275 54.3171 121.538 54.9315C120.819 55.5459 120.459 56.3885 120.459 57.4593H112.853C112.853 55.8092 113.362 54.282 114.38 52.8777C115.397 51.4733 116.836 50.3762 118.696 49.5863C120.556 48.7788 122.644 48.375 124.96 48.375C128.469 48.375 131.25 49.2615 133.303 51.0345C135.373 52.7899 136.408 55.265 136.408 58.4599V70.8092C136.426 73.5125 136.803 75.5575 137.54 76.9443V77.3919H129.855ZM123.565 72.0994C124.688 72.0994 125.723 71.8536 126.67 71.3621C127.618 70.853 128.32 70.1772 128.776 69.3346V64.437H125.934C122.126 64.437 120.1 65.7536 119.854 68.3867L119.828 68.8343C119.828 69.7822 120.161 70.5634 120.828 71.1778C121.494 71.7922 122.407 72.0994 123.565 72.0994Z" fill="black"/>
<path d="M153.068 39.0538L162.911 66.8595L172.701 39.0538H183.071V77.3919H175.149V66.9122L175.938 48.8227L165.595 77.3919H160.174L149.857 48.849L150.646 66.9122V77.3919H142.751V39.0538H153.068Z" fill="black"/>
<path d="M205.968 77.3919C205.617 76.7073 205.362 75.856 205.205 74.8378C203.362 76.8916 200.967 77.9186 198.02 77.9186C195.23 77.9186 192.914 77.1111 191.072 75.4961C189.247 73.8811 188.334 71.8449 188.334 69.3873C188.334 66.368 189.449 64.0508 191.677 62.4359C193.923 60.8209 197.16 60.0046 201.388 59.9871H204.889V58.3545C204.889 57.038 204.547 55.9847 203.862 55.1948C203.196 54.4049 202.134 54.0099 200.678 54.0099C199.397 54.0099 198.388 54.3171 197.651 54.9315C196.932 55.5459 196.572 56.3885 196.572 57.4593H188.966C188.966 55.8092 189.475 54.282 190.493 52.8777C191.51 51.4733 192.949 50.3762 194.809 49.5863C196.669 48.7788 198.757 48.375 201.073 48.375C204.582 48.375 207.363 49.2615 209.415 51.0345C211.486 52.7899 212.521 55.265 212.521 58.4599V70.8092C212.539 73.5125 212.916 75.5575 213.653 76.9443V77.3919H205.968ZM199.678 72.0994C200.801 72.0994 201.836 71.8536 202.783 71.3621C203.731 70.853 204.433 70.1772 204.889 69.3346V64.437H202.046C198.239 64.437 196.212 65.7536 195.967 68.3867L195.94 68.8343C195.94 69.7822 196.274 70.5634 196.941 71.1778C197.607 71.7922 198.52 72.0994 199.678 72.0994Z" fill="black"/>
<path d="M217.179 62.8835C217.179 58.4072 218.171 54.8701 220.153 52.2721C222.154 49.6741 224.891 48.375 228.365 48.375C231.418 48.375 233.848 49.5424 235.655 51.8771L236.155 48.9017H242.84V88.3457H235.207V74.9431C233.453 76.9268 231.154 77.9186 228.312 77.9186C224.926 77.9186 222.224 76.602 220.206 73.9689C218.188 71.3358 217.179 67.6406 217.179 62.8835ZM224.785 63.4364C224.785 66.1573 225.259 68.2287 226.207 69.6506C227.172 71.0725 228.523 71.7834 230.26 71.7834C232.593 71.7834 234.242 70.853 235.207 68.9923V57.2223C234.26 55.4318 232.628 54.5365 230.312 54.5365C228.558 54.5365 227.198 55.2475 226.233 56.6693C225.268 58.0912 224.785 60.3469 224.785 63.4364Z" fill="black"/>
<path d="M10.2247 111.761C6.97437 110.826 4.60572 109.68 3.11873 108.324C1.6449 106.955 0.907985 105.27 0.907985 103.269C0.907985 101.004 1.80939 99.1349 3.6122 97.6603C5.42817 96.1726 7.78366 95.4288 10.6787 95.4288C12.6526 95.4288 14.4093 95.8106 15.9489 96.5742C17.5017 97.3378 18.6992 98.391 19.5414 99.7339C20.3968 101.077 20.8244 102.545 20.8244 104.138H17.0148C17.0148 102.4 16.4622 101.037 15.3568 100.05C14.2514 99.0493 12.692 98.549 10.6787 98.549C8.81008 98.549 7.34941 98.9637 6.29668 99.7931C5.2571 100.609 4.73731 101.748 4.73731 103.21C4.73731 104.381 5.23078 105.375 6.21772 106.192C7.21782 106.995 8.90878 107.732 11.2906 108.403C13.6856 109.075 15.5542 109.819 16.8964 110.635C18.2518 111.438 19.2519 112.379 19.8967 113.459C20.5547 114.539 20.8836 115.809 20.8836 117.27C20.8836 119.601 19.9757 121.47 18.1597 122.879C16.3437 124.274 13.9159 124.972 10.8761 124.972C8.9022 124.972 7.05991 124.597 5.34921 123.847C3.63852 123.083 2.31602 122.043 1.38172 120.726C0.460572 119.41 0 117.916 0 116.244H3.80959C3.80959 117.981 4.44781 119.357 5.72425 120.371C7.01385 121.371 8.73113 121.872 10.8761 121.872C12.8763 121.872 14.4093 121.464 15.4752 120.647C16.5411 119.831 17.0741 118.719 17.0741 117.31C17.0741 115.901 16.5806 114.815 15.5936 114.051C14.6067 113.275 12.8171 112.511 10.2247 111.761Z" fill="black"/>
<path d="M29.8253 124.577H26.0355V95.8237H29.8253V124.577Z" fill="black"/>
<path d="M45.2413 111.761C41.991 110.826 39.6223 109.68 38.1354 108.324C36.6615 106.955 35.9246 105.27 35.9246 103.269C35.9246 101.004 36.826 99.1349 38.6288 97.6603C40.4448 96.1726 42.8003 95.4288 45.6953 95.4288C47.6692 95.4288 49.4259 95.8106 50.9656 96.5742C52.5184 97.3378 53.7158 98.391 54.558 99.7339C55.4134 101.077 55.8411 102.545 55.8411 104.138H52.0315C52.0315 102.4 51.4788 101.037 50.3734 100.05C49.268 99.0493 47.7087 98.549 45.6953 98.549C43.8267 98.549 42.366 98.9637 41.3133 99.7931C40.2737 100.609 39.7539 101.748 39.7539 103.21C39.7539 104.381 40.2474 105.375 41.2343 106.192C42.2344 106.995 43.9254 107.732 46.3072 108.403C48.7022 109.075 50.5708 109.819 51.913 110.635C53.2684 111.438 54.2685 112.379 54.9133 113.459C55.5713 114.539 55.9003 115.809 55.9003 117.27C55.9003 119.601 54.9923 121.47 53.1763 122.879C51.3603 124.274 48.9325 124.972 45.8927 124.972C43.9188 124.972 42.0765 124.597 40.3658 123.847C38.6551 123.083 37.3326 122.043 36.3983 120.726C35.4772 119.41 35.0166 117.916 35.0166 116.244H38.8262C38.8262 117.981 39.4644 119.357 40.7409 120.371C42.0305 121.371 43.7477 121.872 45.8927 121.872C47.8929 121.872 49.4259 121.464 50.4918 120.647C51.5577 119.831 52.0907 118.719 52.0907 117.31C52.0907 115.901 51.5972 114.815 50.6103 114.051C49.6233 113.275 47.8337 112.511 45.2413 111.761Z" fill="black"/>
<path d="M80.633 98.944H71.3952V124.577H67.6251V98.944H58.4071V95.8237H80.633V98.944Z" fill="black"/>
<path d="M101.142 111.287H88.6864V121.477H103.155V124.577H84.8966V95.8237H102.958V98.944H88.6864V108.186H101.142V111.287Z" fill="black"/>
<path d="M112.768 95.8237L122.163 119.285L131.559 95.8237H136.474V124.577H132.684V113.38L133.039 101.294L123.604 124.577H120.703L111.287 101.353L111.662 113.38V124.577H107.873V95.8237H112.768Z" fill="black"/>
<path d="M159.391 117.073H147.35L144.646 124.577H140.738L151.712 95.8237H155.029L166.023 124.577H162.134L159.391 117.073ZM148.495 113.953H158.266L153.37 100.504L148.495 113.953Z" fill="black"/>
<path d="M179.919 124.577V95.8237H188.032C190.532 95.8237 192.743 96.3767 194.664 97.4826C196.585 98.5885 198.066 100.162 199.105 102.202C200.158 104.243 200.691 106.587 200.704 109.233V111.069C200.704 113.782 200.178 116.158 199.125 118.199C198.085 120.239 196.592 121.806 194.644 122.899C192.71 123.991 190.453 124.551 187.874 124.577H179.919ZM183.709 98.944V121.477H187.696C190.618 121.477 192.888 120.568 194.506 118.752C196.138 116.935 196.954 114.348 196.954 110.99V109.312C196.954 106.047 196.184 103.512 194.644 101.709C193.118 99.8919 190.947 98.9703 188.13 98.944H183.709Z" fill="black"/>
<path d="M222.693 111.287H210.238V121.477H224.706V124.577H206.448V95.8237H224.509V98.944H210.238V108.186H222.693V111.287Z" fill="black"/>
<path d="M260.671 120.805C259.697 122.201 258.335 123.248 256.585 123.945C254.848 124.63 252.821 124.972 250.505 124.972C248.163 124.972 246.084 124.426 244.268 123.333C242.452 122.227 241.044 120.661 240.043 118.633C239.057 116.606 238.55 114.256 238.524 111.583V109.075C238.524 104.743 239.53 101.386 241.544 99.0032C243.57 96.6202 246.413 95.4288 250.071 95.4288C253.071 95.4288 255.486 96.1989 257.315 97.7393C259.144 99.2665 260.263 101.439 260.671 104.256H256.881C256.17 100.451 253.907 98.549 250.091 98.549C247.551 98.549 245.623 99.4443 244.307 101.235C243.004 103.012 242.346 105.593 242.333 108.976V111.326C242.333 114.552 243.07 117.119 244.544 119.028C246.018 120.924 248.011 121.872 250.525 121.872C251.946 121.872 253.19 121.714 254.255 121.398C255.321 121.082 256.203 120.549 256.9 119.798V113.34H250.248V110.26H260.671V120.805Z" fill="black"/>
<path d="M283.252 111.287H270.797V121.477H285.265V124.577H267.007V95.8237H285.068V98.944H270.797V108.186H283.252V111.287Z" fill="black"/>
<path d="M298.451 111.761C295.2 110.826 292.832 109.68 291.345 108.324C289.871 106.955 289.134 105.27 289.134 103.269C289.134 101.004 290.035 99.1349 291.838 97.6603C293.654 96.1726 296.01 95.4288 298.905 95.4288C300.878 95.4288 302.635 95.8106 304.175 96.5742C305.728 97.3378 306.925 98.391 307.767 99.7339C308.623 101.077 309.05 102.545 309.05 104.138H305.241C305.241 102.4 304.688 101.037 303.583 100.05C302.477 99.0493 300.918 98.549 298.905 98.549C297.036 98.549 295.575 98.9637 294.523 99.7931C293.483 100.609 292.963 101.748 292.963 103.21C292.963 104.381 293.457 105.375 294.444 106.192C295.444 106.995 297.135 107.732 299.516 108.403C301.911 109.075 303.78 109.819 305.122 110.635C306.478 111.438 307.478 112.379 308.123 113.459C308.781 114.539 309.11 115.809 309.11 117.27C309.11 119.601 308.202 121.47 306.386 122.879C304.57 124.274 302.142 124.972 299.102 124.972C297.128 124.972 295.286 124.597 293.575 123.847C291.864 123.083 290.542 122.043 289.608 120.726C288.686 119.41 288.226 117.916 288.226 116.244H292.035C292.035 117.981 292.674 119.357 293.95 120.371C295.24 121.371 296.957 121.872 299.102 121.872C301.102 121.872 302.635 121.464 303.701 120.647C304.767 119.831 305.3 118.719 305.3 117.31C305.3 115.901 304.806 114.815 303.82 114.051C302.833 113.275 301.043 112.511 298.451 111.761Z" fill="black"/>
<path d="M333.842 98.944H324.604V124.577H320.834V98.944H311.616V95.8237H333.842V98.944Z" fill="black"/>
<path d="M342.172 124.577H338.382V95.8237H342.172V124.577Z" fill="black"/>
<path d="M371.228 111.129C371.228 113.946 370.754 116.408 369.806 118.515C368.859 120.608 367.517 122.208 365.78 123.313C364.043 124.419 362.016 124.972 359.7 124.972C357.437 124.972 355.43 124.419 353.68 123.313C351.93 122.194 350.568 120.608 349.594 118.554C348.633 116.487 348.14 114.098 348.113 111.385V109.312C348.113 106.547 348.594 104.105 349.554 101.985C350.515 99.8655 351.87 98.2462 353.621 97.1271C355.384 95.9949 357.397 95.4288 359.661 95.4288C361.963 95.4288 363.99 95.9883 365.74 97.1074C367.503 98.2133 368.859 99.8261 369.806 101.946C370.754 104.052 371.228 106.508 371.228 109.312V111.129ZM367.457 109.272C367.457 105.862 366.773 103.249 365.405 101.432C364.036 99.6022 362.121 98.6872 359.661 98.6872C357.266 98.6872 355.377 99.6022 353.996 101.432C352.627 103.249 351.923 105.777 351.884 109.016V111.129C351.884 114.433 352.574 117.033 353.956 118.929C355.351 120.812 357.266 121.753 359.7 121.753C362.148 121.753 364.043 120.865 365.385 119.087C366.727 117.297 367.418 114.736 367.457 111.405V109.272ZM361.516 88.0824H365.938L360.648 93.8884H357.706L361.516 88.0824Z" fill="black"/>
<path d="M399 124.577H395.19L380.722 102.42V124.577H376.912V95.8237H380.722L395.23 118.08V95.8237H399V124.577Z" fill="black"/>
</svg>
