<svg width="613" height="192" viewBox="0 0 613 192" fill="none" xmlns="http://www.w3.org/2000/svg">
<path d="M456.381 0H449.619V37.8667H456.381V0Z" fill="#529ED6"/>
<path d="M420.43 7.82925L414.574 11.2102L433.507 44.0027L439.363 40.6218L420.43 7.82925Z" fill="#529ED6"/>
<path d="M393.204 32.5697L389.823 38.4255L422.616 57.3589L425.997 51.5031L393.204 32.5697Z" fill="#529ED6"/>
<path d="M419.867 67.619H382V74.3809H419.867V67.619Z" fill="#529ED6"/>
<path d="M422.614 84.6338L389.825 103.575L393.207 109.43L425.996 90.4889L422.614 84.6338Z" fill="#529ED6"/>
<path d="M433.504 98.0068L414.578 130.803L420.435 134.183L439.36 101.386L433.504 98.0068Z" fill="#529ED6"/>
<path d="M456.381 104.133H449.619V142H456.381V104.133Z" fill="#529ED6"/>
<path d="M472.492 98.0189L466.637 101.401L485.578 134.19L491.433 130.808L472.492 98.0189Z" fill="#529ED6"/>
<path d="M483.388 84.6315L480.008 90.488L512.804 109.418L516.185 103.561L483.388 84.6315Z" fill="#529ED6"/>
<path d="M524 67.619H486.133V74.3809H524V67.619Z" fill="#529ED6"/>
<path d="M512.81 32.5701L480.017 51.5072L483.399 57.363L516.191 38.4259L512.81 32.5701Z" fill="#529ED6"/>
<path d="M485.575 7.82294L466.645 40.6193L472.502 43.9995L491.431 11.2032L485.575 7.82294Z" fill="#529ED6"/>
<path d="M24.6243 97.3386H14.9606V118.9H2.83038V60H24.7052C31.6598 60 37.0241 61.5507 40.7979 64.6522C44.5718 67.7536 46.4587 72.1361 46.4587 77.7996C46.4587 81.818 45.5826 85.1756 43.8305 87.8725C42.1053 90.5424 39.4771 92.673 35.9458 94.2642L48.6826 118.334V118.9H35.6628L24.6243 97.3386ZM14.9606 87.5084H24.7456C27.7917 87.5084 30.1503 86.7398 31.8216 85.2026C33.4928 83.6384 34.3285 81.4943 34.3285 78.7705C34.3285 75.9926 33.5333 73.8082 31.9429 72.217C30.3794 70.6258 27.9669 69.8302 24.7052 69.8302H14.9606V87.5084Z" fill="black"/>
<path d="M75.086 119.709C68.6704 119.709 63.441 117.741 59.3976 113.803C55.3811 109.866 53.3729 104.62 53.3729 98.0668V96.9341C53.3729 92.5382 54.222 88.6142 55.9202 85.1621C57.6185 81.6831 60.0176 79.0132 63.1175 77.1523C66.2444 75.2645 69.8026 74.3206 73.7921 74.3206C79.7763 74.3206 84.4801 76.2084 87.9036 79.9841C91.3539 83.7597 93.0791 89.1131 93.0791 96.0441V100.818H65.2201C65.5975 103.676 66.7296 105.969 68.6165 107.695C70.5304 109.421 72.943 110.284 75.8542 110.284C80.3559 110.284 83.8736 108.652 86.4075 105.389L92.1491 111.821C90.397 114.302 88.0249 116.244 85.0327 117.646C82.0406 119.022 78.725 119.709 75.086 119.709ZM73.7517 83.7867C71.4334 83.7867 69.5465 84.5688 68.0909 86.133C66.6622 87.6972 65.7457 89.9356 65.3414 92.8483H81.5959V91.9179C81.5419 89.3288 80.8411 87.3331 79.4933 85.9307C78.1455 84.5014 76.2316 83.7867 73.7517 83.7867Z" fill="black"/>
<path d="M110.506 75.1296L110.87 80.1863C113.997 76.2758 118.189 74.3206 123.445 74.3206C128.081 74.3206 131.532 75.6825 133.796 78.4064C136.06 81.1302 137.22 85.2026 137.273 90.6234V118.9H125.588V90.9065C125.588 88.4254 125.049 86.6319 123.971 85.5262C122.892 84.3935 121.1 83.8272 118.593 83.8272C115.304 83.8272 112.838 85.2295 111.194 88.0343V118.9H99.5081V75.1296H110.506Z" fill="black"/>
<path d="M160.159 64.369V75.1296H167.639V83.7058H160.159V105.551C160.159 107.169 160.469 108.329 161.089 109.03C161.709 109.731 162.895 110.082 164.647 110.082C165.941 110.082 167.087 109.987 168.084 109.798V118.658C165.793 119.359 163.434 119.709 161.008 119.709C152.814 119.709 148.635 115.57 148.474 107.29V83.7058H142.085V75.1296H148.474V64.369H160.159Z" fill="black"/>
<path d="M199.501 118.9C198.962 117.849 198.571 116.541 198.329 114.976C195.498 118.132 191.819 119.709 187.29 119.709C183.004 119.709 179.446 118.469 176.616 115.988C173.812 113.507 172.411 110.378 172.411 106.603C172.411 101.964 174.122 98.4039 177.546 95.9228C180.996 93.4416 185.97 92.1876 192.466 92.1606H197.844V89.6525C197.844 87.6298 197.318 86.0116 196.267 84.798C195.242 83.5844 193.612 82.9776 191.374 82.9776C189.406 82.9776 187.856 83.4496 186.724 84.3935C185.619 85.3374 185.067 86.6319 185.067 88.277H173.381C173.381 85.742 174.163 83.3956 175.726 81.2381C177.29 79.0806 179.5 77.395 182.357 76.1814C185.215 74.9409 188.423 74.3206 191.981 74.3206C197.372 74.3206 201.644 75.6825 204.798 78.4064C207.979 81.1033 209.57 84.9059 209.57 89.8143V108.787C209.596 112.94 210.176 116.082 211.308 118.213V118.9H199.501ZM189.838 110.769C191.563 110.769 193.153 110.392 194.609 109.637C196.065 108.854 197.143 107.816 197.844 106.522V98.9972H193.477C187.627 98.9972 184.514 101.02 184.137 105.065L184.096 105.753C184.096 107.209 184.608 108.409 185.633 109.353C186.657 110.297 188.059 110.769 189.838 110.769Z" fill="black"/>
<path d="M235.164 60L250.287 102.719L265.328 60H281.259V118.9H269.088V102.8L270.301 75.0083L254.411 118.9H246.081L230.231 75.0487L231.444 102.8V118.9H219.314V60H235.164Z" fill="black"/>
<path d="M316.437 118.9C315.898 117.849 315.507 116.541 315.264 114.976C312.434 118.132 308.754 119.709 304.226 119.709C299.94 119.709 296.381 118.469 293.551 115.988C290.748 113.507 289.346 110.378 289.346 106.603C289.346 101.964 291.058 98.4039 294.481 95.9228C297.931 93.4416 302.905 92.1876 309.401 92.1606H314.779V89.6525C314.779 87.6298 314.253 86.0116 313.202 84.798C312.178 83.5844 310.547 82.9776 308.309 82.9776C306.342 82.9776 304.792 83.4496 303.66 84.3935C302.554 85.3374 302.002 86.6319 302.002 88.277H290.316C290.316 85.742 291.098 83.3956 292.661 81.2381C294.225 79.0806 296.435 77.395 299.293 76.1814C302.15 74.9409 305.358 74.3206 308.916 74.3206C314.307 74.3206 318.58 75.6825 321.734 78.4064C324.914 81.1033 326.505 84.9059 326.505 89.8143V108.787C326.532 112.94 327.111 116.082 328.243 118.213V118.9H316.437ZM306.773 110.769C308.498 110.769 310.089 110.392 311.544 109.637C313 108.854 314.078 107.816 314.779 106.522V98.9972H310.412C304.563 98.9972 301.449 101.02 301.072 105.065L301.031 105.753C301.031 107.209 301.543 108.409 302.568 109.353C303.592 110.297 304.994 110.769 306.773 110.769Z" fill="black"/>
<path d="M333.662 96.6105C333.662 89.7334 335.185 84.2991 338.231 80.3077C341.304 76.3163 345.509 74.3206 350.846 74.3206C355.536 74.3206 359.27 76.114 362.046 79.7009L362.814 75.1296H373.085V135.729H361.359V115.138C358.663 118.186 355.132 119.709 350.765 119.709C345.563 119.709 341.411 117.687 338.311 113.641C335.212 109.596 333.662 103.919 333.662 96.6105ZM345.347 97.46C345.347 101.64 346.075 104.823 347.53 107.007C349.013 109.192 351.089 110.284 353.757 110.284C357.342 110.284 359.876 108.854 361.359 105.996V87.913C359.903 85.1621 357.396 83.7867 353.838 83.7867C351.143 83.7867 349.053 84.8789 347.571 87.0634C346.088 89.2479 345.347 92.7135 345.347 97.46Z" fill="black"/>
<path d="M15.7086 171.702C10.715 170.266 7.07595 168.507 4.79143 166.423C2.52713 164.32 1.39497 161.731 1.39497 158.656C1.39497 155.177 2.77984 152.305 5.54957 150.04C8.33952 147.754 11.9584 146.611 16.4061 146.611C19.4387 146.611 22.1376 147.198 24.503 148.371C26.8886 149.544 28.7284 151.162 30.0223 153.225C31.3364 155.288 31.9934 157.544 31.9934 159.991H26.1406C26.1406 157.321 25.2915 155.228 23.5933 153.711C21.895 152.173 19.4993 151.405 16.4061 151.405C13.5353 151.405 11.2912 152.042 9.67384 153.316C8.0767 154.57 7.27812 156.32 7.27812 158.565C7.27812 160.365 8.03626 161.892 9.55254 163.146C11.089 164.38 13.6869 165.513 17.3462 166.545C21.0257 167.576 23.8965 168.719 25.9586 169.973C28.041 171.207 29.5775 172.653 30.5681 174.312C31.579 175.97 32.0844 177.922 32.0844 180.167C32.0844 183.747 30.6894 186.62 27.8995 188.784C25.1095 190.928 21.3795 192 16.7094 192C13.6768 192 10.8464 191.424 8.21821 190.271C5.59 189.097 3.55819 187.5 2.12279 185.477C0.707595 183.454 0 181.158 0 178.59H5.85282C5.85282 181.26 6.83335 183.373 8.7944 184.931C10.7757 186.468 13.414 187.237 16.7094 187.237C19.7823 187.237 22.1376 186.61 23.7752 185.355C25.4128 184.101 26.2316 182.392 26.2316 180.228C26.2316 178.064 25.4734 176.395 23.9572 175.222C22.4409 174.029 19.6914 172.855 15.7086 171.702Z" fill="black"/>
<path d="M45.8219 191.393H39.9994V147.218H45.8219V191.393Z" fill="black"/>
<path d="M69.5061 171.702C64.5125 170.266 60.8734 168.507 58.5889 166.423C56.3246 164.32 55.1924 161.731 55.1924 158.656C55.1924 155.177 56.5773 152.305 59.347 150.04C62.137 147.754 65.7558 146.611 70.2036 146.611C73.2361 146.611 75.9351 147.198 78.3005 148.371C80.6861 149.544 82.5258 151.162 83.8197 153.225C85.1338 155.288 85.7909 157.544 85.7909 159.991H79.9381C79.9381 157.321 79.0889 155.228 77.3907 153.711C75.6925 152.173 73.2968 151.405 70.2036 151.405C67.3328 151.405 65.0887 152.042 63.4713 153.316C61.8742 154.57 61.0756 156.32 61.0756 158.565C61.0756 160.365 61.8337 161.892 63.35 163.146C64.8865 164.38 67.4844 165.513 71.1437 166.545C74.8232 167.576 77.694 168.719 79.7561 169.973C81.8385 171.207 83.375 172.653 84.3656 174.312C85.3764 175.97 85.8819 177.922 85.8819 180.167C85.8819 183.747 84.4869 186.62 81.6969 188.784C78.907 190.928 75.177 192 70.5068 192C67.4743 192 64.6439 191.424 62.0157 190.271C59.3875 189.097 57.3557 187.5 55.9202 185.477C54.5051 183.454 53.7975 181.158 53.7975 178.59H59.6503C59.6503 181.26 60.6308 183.373 62.5919 184.931C64.5731 186.468 67.2114 187.237 70.5068 187.237C73.5798 187.237 75.9351 186.61 77.5727 185.355C79.2103 184.101 80.029 182.392 80.029 180.228C80.029 178.064 79.2709 176.395 77.7546 175.222C76.2383 174.029 73.4888 172.855 69.5061 171.702Z" fill="black"/>
<path d="M123.88 152.012H109.687V191.393H103.895V152.012H89.7332V147.218H123.88V152.012Z" fill="black"/>
<path d="M155.388 170.974H136.253V186.63H158.481V191.393H130.43V147.218H158.178V152.012H136.253V166.211H155.388V170.974Z" fill="black"/>
<path d="M173.25 147.218L187.685 183.262L202.12 147.218H209.671V191.393H203.848V174.19L204.394 155.622L189.898 191.393H185.441L170.975 155.713L171.551 174.19V191.393H165.729V147.218H173.25Z" fill="black"/>
<path d="M244.879 179.864H226.38L222.225 191.393H216.221L233.082 147.218H238.177L255.068 191.393H249.094L244.879 179.864ZM228.139 175.07H243.15L235.629 154.409L228.139 175.07Z" fill="black"/>
<path d="M276.417 191.393V147.218H288.881C292.722 147.218 296.119 148.067 299.07 149.766C302.022 151.466 304.296 153.883 305.893 157.018C307.511 160.153 308.33 163.753 308.35 167.819V170.641C308.35 174.807 307.541 178.458 305.924 181.593C304.327 184.728 302.032 187.135 299.04 188.814C296.068 190.493 292.601 191.353 288.638 191.393H276.417ZM282.24 152.012V186.63H288.365C292.854 186.63 296.341 185.234 298.828 182.443C301.335 179.652 302.588 175.677 302.588 170.519V167.94C302.588 162.924 301.405 159.03 299.04 156.259C296.695 153.468 293.359 152.052 289.033 152.012H282.24Z" fill="black"/>
<path d="M342.132 170.974H322.997V186.63H345.226V191.393H317.175V147.218H344.922V152.012H322.997V166.211H342.132V170.974Z" fill="black"/>
<path d="M400.479 185.598C398.983 187.742 396.89 189.35 394.201 190.422C391.533 191.474 388.419 192 384.861 192C381.263 192 378.068 191.161 375.278 189.482C372.488 187.783 370.325 185.376 368.789 182.261C367.272 179.146 366.494 175.535 366.454 171.429V167.576C366.454 160.922 368 155.764 371.093 152.103C374.207 148.442 378.574 146.611 384.194 146.611C388.803 146.611 392.513 147.794 395.323 150.161C398.134 152.507 399.852 155.845 400.479 160.173H394.656C393.565 154.328 390.087 151.405 384.224 151.405C380.322 151.405 377.361 152.78 375.339 155.531C373.337 158.262 372.327 162.226 372.306 167.424V171.035C372.306 175.991 373.439 179.935 375.703 182.868C377.967 185.78 381.03 187.237 384.891 187.237C387.075 187.237 388.985 186.994 390.623 186.508C392.261 186.023 393.615 185.204 394.687 184.051V174.13H384.467V169.397H400.479V185.598Z" fill="black"/>
<path d="M435.171 170.974H416.036V186.63H438.264V191.393H410.213V147.218H437.961V152.012H416.036V166.211H435.171V170.974Z" fill="black"/>
<path d="M458.522 171.702C453.528 170.266 449.889 168.507 447.605 166.423C445.34 164.32 444.208 161.731 444.208 158.656C444.208 155.177 445.593 152.305 448.363 150.04C451.153 147.754 454.772 146.611 459.219 146.611C462.252 146.611 464.951 147.198 467.316 148.371C469.702 149.544 471.542 151.162 472.835 153.225C474.15 155.288 474.807 157.544 474.807 159.991H468.954C468.954 157.321 468.105 155.228 466.406 153.711C464.708 152.173 462.312 151.405 459.219 151.405C456.348 151.405 454.104 152.042 452.487 153.316C450.89 154.57 450.091 156.32 450.091 158.565C450.091 160.365 450.849 161.892 452.366 163.146C453.902 164.38 456.5 165.513 460.159 166.545C463.839 167.576 466.71 168.719 468.772 169.973C470.854 171.207 472.391 172.653 473.381 174.312C474.392 175.97 474.898 177.922 474.898 180.167C474.898 183.747 473.503 186.62 470.713 188.784C467.923 190.928 464.193 192 459.523 192C456.49 192 453.66 191.424 451.031 190.271C448.403 189.097 446.371 187.5 444.936 185.477C443.521 183.454 442.813 181.158 442.813 178.59H448.666C448.666 181.26 449.647 183.373 451.608 184.931C453.589 186.468 456.227 187.237 459.523 187.237C462.596 187.237 464.951 186.61 466.588 185.355C468.226 184.101 469.045 182.392 469.045 180.228C469.045 178.064 468.287 176.395 466.77 175.222C465.254 174.029 462.505 172.855 458.522 171.702Z" fill="black"/>
<path d="M512.895 152.012H498.703V191.393H492.911V152.012H478.749V147.218H512.895V152.012Z" fill="black"/>
<path d="M525.693 191.393H519.87V147.218H525.693V191.393Z" fill="black"/>
<path d="M570.332 170.732C570.332 175.06 569.604 178.842 568.149 182.079C566.693 185.295 564.631 187.752 561.962 189.451C559.294 191.15 556.18 192 552.622 192C549.145 192 546.061 191.15 543.373 189.451C540.684 187.732 538.591 185.295 537.095 182.139C535.619 178.964 534.861 175.293 534.821 171.126V167.94C534.821 163.693 535.559 159.941 537.035 156.684C538.51 153.428 540.593 150.94 543.282 149.22C545.991 147.481 549.084 146.611 552.561 146.611C556.099 146.611 559.213 147.471 561.901 149.19C564.611 150.889 566.693 153.367 568.149 156.623C569.604 159.86 570.332 163.632 570.332 167.94V170.732ZM564.54 167.88C564.54 162.641 563.489 158.626 561.386 155.835C559.283 153.023 556.342 151.617 552.561 151.617C548.882 151.617 545.981 153.023 543.858 155.835C541.755 158.626 540.674 162.509 540.613 167.485V170.732C540.613 175.808 541.674 179.803 543.797 182.716C545.94 185.608 548.882 187.055 552.622 187.055C556.382 187.055 559.294 185.689 561.356 182.959C563.418 180.208 564.479 176.274 564.54 171.156V167.88ZM555.412 135.325H562.205L554.078 144.245H549.559L555.412 135.325Z" fill="black"/>
<path d="M613 191.393H607.147L584.919 157.352V191.393H579.066V147.218H584.919L607.208 181.411V147.218H613V191.393Z" fill="black"/>
</svg>
